<?xml version="1.0" standalone="no"?>
<!DOCTYPE svg PUBLIC "-//W3C//DTD SVG 20010904//EN"
 "http://www.w3.org/TR/2001/REC-SVG-20010904/DTD/svg10.dtd">
<svg version="1.0" xmlns="http://www.w3.org/2000/svg"
 width="273.000000pt" height="273.000000pt" viewBox="0 0 273.000000 273.000000"
 preserveAspectRatio="xMidYMid meet">
<metadata>
Created by potrace 1.11, written by Peter Selinger 2001-2013
</metadata>
<g transform="translate(0.000000,273.000000) scale(0.100000,-0.100000)"
fill="#000000" stroke="none">
<path d="M2255 1778 c-69 -13 -182 -69 -237 -118 -69 -60 -143 -177 -173 -271
-52 -165 -23 -283 85 -343 54 -30 58 -31 190 -31 151 0 187 9 325 76 l81 39
48 147 c27 82 50 154 53 161 4 9 -36 12 -175 12 l-180 0 -25 -75 c-14 -41 -23
-75 -19 -76 4 -1 38 0 76 1 l69 1 -7 -32 c-3 -18 -11 -38 -17 -46 -14 -16
-131 -53 -170 -53 -42 0 -95 25 -109 50 -18 34 -14 114 10 185 43 130 119 205
217 213 77 6 102 -3 119 -44 14 -33 18 -36 47 -30 18 3 69 11 115 17 l82 12 0
41 c0 61 -36 116 -93 145 -40 20 -66 24 -155 26 -59 2 -129 -1 -157 -7z"/>
<path d="M578 1772 c-153 -1 -278 -3 -278 -5 0 -1 -56 -168 -124 -372 l-124
-370 106 -3 c58 -1 111 -1 116 1 6 3 33 73 61 156 l49 151 147 0 147 0 21 62
c12 34 21 68 21 75 0 10 -31 13 -140 13 -77 0 -140 4 -140 8 0 15 33 107 42
119 7 8 52 12 146 12 75 0 151 0 168 1 28 0 31 4 53 71 13 39 19 74 14 78 -4
3 -133 5 -285 3z"/>
<path d="M1531 1750 c-10 -14 -71 -114 -135 -223 -65 -109 -120 -196 -122
-194 -4 4 2 106 22 355 l7 83 -154 -3 -153 -3 -123 -365 c-68 -201 -123 -368
-123 -372 0 -5 42 -8 93 -8 l93 0 89 273 c49 149 90 274 92 276 10 14 10 -23
-3 -174 -7 -93 -17 -216 -21 -272 l-9 -103 86 0 86 0 64 110 c36 61 97 165
137 233 40 67 79 136 88 154 9 18 24 38 33 45 9 7 13 9 10 3 -7 -12 -178 -531
-178 -539 0 -3 42 -6 93 -6 l92 0 123 368 c67 202 122 371 122 374 0 4 -66 8
-146 10 -146 3 -146 3 -163 -22z"/>
</g>
</svg>
